<?xml version="1.0" encoding="UTF-8"?>
<svg id="Layer_2" data-name="Layer 2" xmlns="http://www.w3.org/2000/svg" viewBox="0 0 230.63 230.63">
  <defs>
    <style>
      .cls-1 {
        fill: #131313;
        stroke-width: 0px;
      }
    </style>
  </defs>
  <g id="banner36">
    <g id="shape217">
      <path class="cls-1" d="M215.31,31.69c-7.6,0-13.76,6.16-13.76,13.76s6.16,13.76,13.76,13.76,13.76-6.16,13.76-13.76-6.16-13.76-13.76-13.76Z"/>
      <path class="cls-1" d="M215.31,63.38c-6.74,0-12.2,5.46-12.2,12.2s5.46,12.2,12.2,12.2,12.2-5.46,12.2-12.2-5.46-12.2-12.2-12.2Z"/>
      <path class="cls-1" d="M215.31,95.07c-5.88,0-10.64,4.76-10.64,10.64s4.76,10.64,10.64,10.64,10.64-4.76,10.64-10.64-4.76-10.64-10.64-10.64Z"/>
      <path class="cls-1" d="M215.31,126.76c-5.01,0-9.08,4.07-9.08,9.08s4.07,9.08,9.08,9.08,9.08-4.07,9.08-9.08-4.07-9.08-9.08-9.08Z"/>
      <path class="cls-1" d="M215.31,158.44c-4.15,0-7.52,3.37-7.52,7.52s3.37,7.52,7.52,7.52,7.52-3.37,7.52-7.52-3.37-7.52-7.52-7.52Z"/>
      <path class="cls-1" d="M215.31,190.13c-3.29,0-5.96,2.67-5.96,5.96s2.67,5.96,5.96,5.96,5.96-2.67,5.96-5.96-2.67-5.96-5.96-5.96Z"/>
      <path class="cls-1" d="M215.31,221.82c-2.43,0-4.4,1.97-4.4,4.4s1.97,4.4,4.4,4.4,4.4-1.97,4.4-4.4-1.97-4.4-4.4-4.4Z"/>
      <path class="cls-1" d="M186.74,31.69c-7.6,0-13.76,6.16-13.76,13.76s6.16,13.76,13.76,13.76,13.76-6.16,13.76-13.76-6.16-13.76-13.76-13.76Z"/>
      <path class="cls-1" d="M186.74,63.38c-6.74,0-12.2,5.46-12.2,12.2s5.46,12.2,12.2,12.2,12.2-5.46,12.2-12.2-5.46-12.2-12.2-12.2Z"/>
      <path class="cls-1" d="M186.74,95.07c-5.88,0-10.64,4.76-10.64,10.64s4.76,10.64,10.64,10.64,10.64-4.76,10.64-10.64-4.76-10.64-10.64-10.64Z"/>
      <path class="cls-1" d="M186.74,126.76c-5.02,0-9.08,4.07-9.08,9.08s4.07,9.08,9.08,9.08,9.08-4.07,9.08-9.08-4.07-9.08-9.08-9.08Z"/>
      <path class="cls-1" d="M186.74,158.44c-4.15,0-7.52,3.37-7.52,7.52s3.37,7.52,7.52,7.52,7.52-3.37,7.52-7.52-3.37-7.52-7.52-7.52Z"/>
      <path class="cls-1" d="M186.74,190.13c-3.29,0-5.96,2.67-5.96,5.96s2.67,5.96,5.96,5.96,5.96-2.67,5.96-5.96-2.67-5.96-5.96-5.96Z"/>
      <path class="cls-1" d="M186.74,221.82c-2.43,0-4.4,1.97-4.4,4.4s1.97,4.4,4.4,4.4,4.4-1.97,4.4-4.4-1.97-4.4-4.4-4.4Z"/>
      <path class="cls-1" d="M158.17,31.69c-7.6,0-13.76,6.16-13.76,13.76s6.16,13.76,13.76,13.76,13.76-6.16,13.76-13.76-6.16-13.76-13.76-13.76Z"/>
      <path class="cls-1" d="M158.17,63.38c-6.74,0-12.2,5.46-12.2,12.2s5.46,12.2,12.2,12.2,12.2-5.46,12.2-12.2-5.46-12.2-12.2-12.2Z"/>
      <path class="cls-1" d="M158.17,95.07c-5.88,0-10.64,4.76-10.64,10.64s4.76,10.64,10.64,10.64,10.64-4.76,10.64-10.64-4.76-10.64-10.64-10.64Z"/>
      <path class="cls-1" d="M158.17,126.76c-5.02,0-9.08,4.07-9.08,9.08s4.07,9.08,9.08,9.08,9.08-4.07,9.08-9.08-4.07-9.08-9.08-9.08Z"/>
      <path class="cls-1" d="M158.17,158.44c-4.15,0-7.52,3.37-7.52,7.52s3.37,7.52,7.52,7.52,7.52-3.37,7.52-7.52-3.37-7.52-7.52-7.52Z"/>
      <path class="cls-1" d="M158.17,190.13c-3.29,0-5.96,2.67-5.96,5.96s2.67,5.96,5.96,5.96,5.96-2.67,5.96-5.96-2.67-5.96-5.96-5.96Z"/>
      <path class="cls-1" d="M158.17,221.82c-2.43,0-4.4,1.97-4.4,4.4s1.97,4.4,4.4,4.4,4.4-1.97,4.4-4.4-1.97-4.4-4.4-4.4Z"/>
      <path class="cls-1" d="M129.6,31.69c-7.6,0-13.76,6.16-13.76,13.76s6.16,13.76,13.76,13.76,13.76-6.16,13.76-13.76-6.16-13.76-13.76-13.76Z"/>
      <path class="cls-1" d="M129.6,63.38c-6.74,0-12.2,5.46-12.2,12.2s5.46,12.2,12.2,12.2,12.2-5.46,12.2-12.2-5.46-12.2-12.2-12.2Z"/>
      <path class="cls-1" d="M129.6,95.07c-5.88,0-10.64,4.76-10.64,10.64s4.76,10.64,10.64,10.64,10.64-4.76,10.64-10.64-4.76-10.64-10.64-10.64Z"/>
      <path class="cls-1" d="M129.6,126.76c-5.01,0-9.08,4.07-9.08,9.08s4.07,9.08,9.08,9.08,9.08-4.07,9.08-9.08-4.07-9.08-9.08-9.08Z"/>
      <path class="cls-1" d="M129.6,158.44c-4.15,0-7.52,3.37-7.52,7.52s3.37,7.52,7.52,7.52,7.52-3.37,7.52-7.52-3.37-7.52-7.52-7.52Z"/>
      <path class="cls-1" d="M129.6,190.13c-3.29,0-5.96,2.67-5.96,5.96s2.67,5.96,5.96,5.96,5.96-2.67,5.96-5.96-2.67-5.96-5.96-5.96Z"/>
      <path class="cls-1" d="M129.6,221.82c-2.43,0-4.4,1.97-4.4,4.4s1.97,4.4,4.4,4.4,4.4-1.97,4.4-4.4-1.97-4.4-4.4-4.4Z"/>
      <path class="cls-1" d="M101.03,31.69c-7.6,0-13.76,6.16-13.76,13.76s6.16,13.76,13.76,13.76,13.76-6.16,13.76-13.76-6.16-13.76-13.76-13.76Z"/>
      <path class="cls-1" d="M101.03,63.38c-6.74,0-12.2,5.46-12.2,12.2s5.46,12.2,12.2,12.2,12.2-5.46,12.2-12.2-5.46-12.2-12.2-12.2Z"/>
      <path class="cls-1" d="M101.03,95.07c-5.88,0-10.64,4.76-10.64,10.64s4.76,10.64,10.64,10.64,10.64-4.76,10.64-10.64-4.76-10.64-10.64-10.64Z"/>
      <path class="cls-1" d="M101.03,126.76c-5.02,0-9.08,4.07-9.08,9.08s4.07,9.08,9.08,9.08,9.08-4.07,9.08-9.08-4.07-9.08-9.08-9.08Z"/>
      <path class="cls-1" d="M101.03,158.44c-4.15,0-7.52,3.37-7.52,7.52s3.37,7.52,7.52,7.52,7.52-3.37,7.52-7.52-3.37-7.52-7.52-7.52Z"/>
      <path class="cls-1" d="M101.03,190.13c-3.29,0-5.96,2.67-5.96,5.96s2.67,5.96,5.96,5.96,5.96-2.67,5.96-5.96-2.67-5.96-5.96-5.96Z"/>
      <path class="cls-1" d="M101.03,221.82c-2.43,0-4.4,1.97-4.4,4.4s1.97,4.4,4.4,4.4,4.4-1.97,4.4-4.4-1.97-4.4-4.4-4.4Z"/>
      <path class="cls-1" d="M72.46,31.69c-7.6,0-13.76,6.16-13.76,13.76s6.16,13.76,13.76,13.76,13.76-6.16,13.76-13.76-6.16-13.76-13.76-13.76Z"/>
      <path class="cls-1" d="M72.46,63.38c-6.74,0-12.2,5.46-12.2,12.2s5.46,12.2,12.2,12.2,12.2-5.46,12.2-12.2-5.46-12.2-12.2-12.2Z"/>
      <path class="cls-1" d="M72.46,95.07c-5.88,0-10.64,4.76-10.64,10.64s4.76,10.64,10.64,10.64,10.64-4.76,10.64-10.64-4.76-10.64-10.64-10.64Z"/>
      <path class="cls-1" d="M72.46,126.76c-5.02,0-9.08,4.07-9.08,9.08s4.07,9.08,9.08,9.08,9.08-4.07,9.08-9.08-4.07-9.08-9.08-9.08Z"/>
      <path class="cls-1" d="M72.46,158.44c-4.15,0-7.52,3.37-7.52,7.52s3.37,7.52,7.52,7.52,7.52-3.37,7.52-7.52-3.37-7.52-7.52-7.52Z"/>
      <path class="cls-1" d="M72.46,190.13c-3.29,0-5.96,2.67-5.96,5.96s2.67,5.96,5.96,5.96,5.96-2.67,5.96-5.96-2.67-5.96-5.96-5.96Z"/>
      <path class="cls-1" d="M72.46,221.82c-2.43,0-4.4,1.97-4.4,4.4s1.97,4.4,4.4,4.4,4.4-1.97,4.4-4.4-1.97-4.4-4.4-4.4Z"/>
      <path class="cls-1" d="M43.89,31.69c-7.6,0-13.76,6.16-13.76,13.76s6.16,13.76,13.76,13.76,13.76-6.16,13.76-13.76-6.16-13.76-13.76-13.76Z"/>
      <path class="cls-1" d="M43.89,63.38c-6.74,0-12.2,5.46-12.2,12.2s5.46,12.2,12.2,12.2,12.2-5.46,12.2-12.2-5.46-12.2-12.2-12.2Z"/>
      <path class="cls-1" d="M43.89,95.07c-5.88,0-10.64,4.76-10.64,10.64s4.76,10.64,10.64,10.64,10.64-4.76,10.64-10.64-4.76-10.64-10.64-10.64Z"/>
      <path class="cls-1" d="M43.89,126.76c-5.02,0-9.08,4.07-9.08,9.08s4.07,9.08,9.08,9.08,9.08-4.07,9.08-9.08-4.07-9.08-9.08-9.08Z"/>
      <path class="cls-1" d="M43.89,158.44c-4.15,0-7.52,3.37-7.52,7.52s3.37,7.52,7.52,7.52,7.52-3.37,7.52-7.52-3.37-7.52-7.52-7.52Z"/>
      <path class="cls-1" d="M43.89,190.13c-3.29,0-5.96,2.67-5.96,5.96s2.67,5.96,5.96,5.96,5.96-2.67,5.96-5.96-2.67-5.96-5.96-5.96Z"/>
      <path class="cls-1" d="M43.89,221.82c-2.43,0-4.4,1.97-4.4,4.4s1.97,4.4,4.4,4.4,4.4-1.97,4.4-4.4-1.97-4.4-4.4-4.4Z"/>
      <path class="cls-1" d="M15.32,30.63c6.55,0,12.1-4.13,14.29-9.91,2.19,5.78,7.74,9.91,14.29,9.91s12.1-4.13,14.29-9.91c2.19,5.78,7.74,9.91,14.29,9.91s12.1-4.13,14.29-9.91c2.19,5.78,7.74,9.91,14.29,9.91s12.09-4.13,14.28-9.91c2.19,5.78,7.74,9.91,14.29,9.91s12.1-4.13,14.29-9.91c2.19,5.78,7.74,9.91,14.29,9.91s12.1-4.13,14.29-9.91c2.19,5.78,7.74,9.91,14.29,9.91s12.09-4.13,14.28-9.91c2.19,5.78,7.74,9.91,14.29,9.91,8.46,0,15.32-6.86,15.32-15.32s-6.86-15.32-15.32-15.32c-6.55,0-12.1,4.13-14.29,9.91-2.19-5.78-7.74-9.91-14.28-9.91s-12.1,4.13-14.29,9.91c-2.19-5.78-7.74-9.91-14.29-9.91s-12.1,4.13-14.29,9.91c-2.19-5.78-7.74-9.91-14.29-9.91s-12.1,4.13-14.29,9.91c-2.19-5.78-7.74-9.91-14.28-9.91s-12.1,4.13-14.29,9.91c-2.19-5.78-7.74-9.91-14.29-9.91s-12.1,4.13-14.29,9.91c-2.19-5.78-7.74-9.91-14.29-9.91s-12.1,4.13-14.29,9.91C27.41,4.13,21.87,0,15.32,0,6.86,0,0,6.86,0,15.32s6.86,15.32,15.32,15.32Z"/>
      <path class="cls-1" d="M15.32,31.69c-7.6,0-13.76,6.16-13.76,13.76s6.16,13.76,13.76,13.76,13.76-6.16,13.76-13.76-6.16-13.76-13.76-13.76Z"/>
      <path class="cls-1" d="M15.32,63.38c-6.74,0-12.2,5.46-12.2,12.2s5.46,12.2,12.2,12.2,12.2-5.46,12.2-12.2-5.46-12.2-12.2-12.2Z"/>
      <path class="cls-1" d="M15.32,95.07c-5.88,0-10.64,4.76-10.64,10.64s4.76,10.64,10.64,10.64,10.64-4.76,10.64-10.64-4.76-10.64-10.64-10.64Z"/>
      <path class="cls-1" d="M15.32,126.76c-5.02,0-9.08,4.07-9.08,9.08s4.07,9.08,9.08,9.08,9.08-4.07,9.08-9.08-4.07-9.08-9.08-9.08Z"/>
      <path class="cls-1" d="M15.32,158.44c-4.15,0-7.52,3.37-7.52,7.52s3.37,7.52,7.52,7.52,7.52-3.37,7.52-7.52-3.37-7.52-7.52-7.52Z"/>
      <path class="cls-1" d="M15.32,190.13c-3.29,0-5.96,2.67-5.96,5.96s2.67,5.96,5.96,5.96,5.96-2.67,5.96-5.96-2.67-5.96-5.96-5.96Z"/>
      <path class="cls-1" d="M15.32,221.82c-2.43,0-4.4,1.97-4.4,4.4s1.97,4.4,4.4,4.4,4.4-1.97,4.4-4.4-1.97-4.4-4.4-4.4Z"/>
    </g>
  </g>
</svg>